<svg version="1.1" viewBox="0.0 0.0 586.3595800524935 567.5354330708661" fill="none" stroke="none" stroke-linecap="square" stroke-miterlimit="10" xmlns:xlink="http://www.w3.org/1999/xlink" xmlns="http://www.w3.org/2000/svg"><clipPath id="p.0"><path d="m0 0l586.35956 0l0 567.53546l-586.35956 0l0 -567.53546z" clip-rule="nonzero"/></clipPath><g clip-path="url(#p.0)"><path fill="#000000" fill-opacity="0.0" d="m0 0l586.35956 0l0 567.53546l-586.35956 0z" fill-rule="evenodd"/><path fill="#b7b7b7" d="m383.12073 100.68241l51.212616 0l0 348.8819l-51.212616 0z" fill-rule="evenodd"/><path fill="#4a86e8" d="m182.33989 177.7546l0 -77.073494c0 8.513306 44.94603 15.414703 100.389755 15.414703c55.443756 0 100.38977 -6.9013977 100.38977 -15.414703l0 77.073494l0 0c0 8.513306 -44.946014 15.414703 -100.38977 15.414703c-55.443726 0 -100.389755 -6.9013977 -100.389755 -15.414703z" fill-rule="evenodd"/><defs><linearGradient id="p.1" gradientUnits="userSpaceOnUse" gradientTransform="matrix(22.56678626919848 0.0 0.0 22.56678626919848 0.0 0.0)" spreadMethod="pad" x1="1.8157826047515135" y1="16.913110095936176" x2="24.382568873949992" y2="16.913110095936176"><stop offset="0.0" stop-color="#4a86e8"/><stop offset="1.0" stop-color="#1bdc5c"/></linearGradient></defs><path fill="url(#p.1)" d="m40.97638 240.29659l421.155 0l0 -47.125977l88.10483 94.25197l-88.10483 94.25195l0 -47.125977l-421.155 0z" fill-rule="evenodd"/><path fill="#b7b7b7" d="m131.11548 100.68241l51.2126 0l0 348.8819l-51.2126 0z" fill-rule="evenodd"/><path fill="#4a86e8" d="m0 281.55905l0 0c0 -155.50076 129.72461 -281.55905 289.74802 -281.55905l0 0c76.84598 0 150.54453 29.664173 204.88281 82.466736c54.338287 52.802567 84.865204 124.41821 84.865204 199.09232l0 0c0 155.50076 -129.72458 281.55905 -289.74802 281.55905l0 0c-160.0234 0 -289.74802 -126.05829 -289.74802 -281.55905zm26.32014 0l0 0c0 140.96457 117.940674 255.23892 263.4279 255.23892c145.48721 0 263.4279 -114.27435 263.4279 -255.23892l0 0c0 -140.96455 -117.940674 -255.2389 -263.4279 -255.2389l0 0c-145.4872 0 -263.4279 114.27435 -263.4279 255.2389z" fill-rule="evenodd"/></g></svg>